<svg width="29" height="27" viewBox="0 0 29 27" fill="none" xmlns="http://www.w3.org/2000/svg">
<path d="M14.5 13.5001V13.5147M8.66667 13.5001V13.5147M20.3333 13.5001V13.5147M1.375 25.1668L3.27083 19.4793C1.63232 17.056 1.03957 14.1862 1.60282 11.4035C2.16606 8.62083 3.84697 6.11466 6.33299 4.35095C8.81902 2.58725 11.941 1.68603 15.1185 1.81486C18.2959 1.94369 21.3126 3.09381 23.6077 5.05137C25.9028 7.00893 27.32 9.64072 27.5959 12.4574C27.8718 15.2741 26.9876 18.084 25.1077 20.3647C23.2278 22.6454 20.4801 24.2416 17.3755 24.8567C14.2709 25.4717 11.0207 25.0637 8.22917 23.7085L1.375 25.1668Z" stroke="black" stroke-width="2" stroke-linecap="round" stroke-linejoin="round"/>
</svg>
