<svg width="21" height="21" viewBox="0 0 21 21" fill="none" xmlns="http://www.w3.org/2000/svg">
<path d="M19.25 4.8125C19.25 4.4644 19.1117 4.13056 18.8656 3.88442C18.6194 3.63828 18.2856 3.5 17.9375 3.5H3.0625C2.7144 3.5 2.38056 3.63828 2.13442 3.88442C1.88828 4.13056 1.75 4.4644 1.75 4.8125V8.75H19.25V4.8125Z" stroke="#587CF4" stroke-opacity="0.8" stroke-width="1.75" stroke-linecap="round" stroke-linejoin="round"/>
<path d="M1.79883 17.0756L7.12583 11.6944L10.0046 14.4506L13.523 11.375L15.483 13.286" stroke="#587CF4" stroke-opacity="0.8" stroke-width="1.75" stroke-linecap="round" stroke-linejoin="round"/>
<path d="M19.25 7.875V16.1875C19.25 16.5356 19.1117 16.8694 18.8656 17.1156C18.6194 17.3617 18.2856 17.5 17.9375 17.5H5.25" stroke="#587CF4" stroke-opacity="0.8" stroke-width="1.75" stroke-linecap="round" stroke-linejoin="round"/>
<path d="M8.36133 6.125H16.2363" stroke="#587CF4" stroke-opacity="0.8" stroke-width="1.75" stroke-linecap="round" stroke-linejoin="round"/>
<path d="M4.86035 6.125H5.73535" stroke="#587CF4" stroke-opacity="0.8" stroke-width="1.75" stroke-linecap="round" stroke-linejoin="round"/>
<path d="M1.75 7.875V11.8125" stroke="#587CF4" stroke-opacity="0.8" stroke-width="1.75" stroke-linecap="round" stroke-linejoin="round"/>
</svg>
