<svg width="34" height="31" viewBox="0 0 34 31" fill="none" xmlns="http://www.w3.org/2000/svg">
<path d="M17.2366 15.8282C16.3516 15.8282 15.4866 16.0906 14.7508 16.5822C14.015 17.0738 13.4416 17.7726 13.1029 18.5902C12.7643 19.4077 12.6757 20.3074 12.8483 21.1753C13.0209 22.0432 13.4471 22.8404 14.0728 23.4662C14.6985 24.0919 15.4958 24.518 16.3637 24.6907C17.2316 24.8633 18.1312 24.7747 18.9488 24.436C19.7663 24.0974 20.4651 23.5239 20.9568 22.7881C21.4484 22.0524 21.7108 21.1873 21.7108 20.3024C21.7108 19.1158 21.2394 17.9777 20.4003 17.1386C19.5612 16.2996 18.4232 15.8282 17.2366 15.8282ZM17.2366 21.7938C16.9416 21.7938 16.6532 21.7063 16.408 21.5425C16.1627 21.3786 15.9716 21.1457 15.8587 20.8731C15.7458 20.6006 15.7163 20.3007 15.7738 20.0114C15.8314 19.7221 15.9734 19.4564 16.182 19.2478C16.3906 19.0392 16.6563 18.8972 16.9456 18.8396C17.2349 18.7821 17.5348 18.8116 17.8073 18.9245C18.0798 19.0374 18.3128 19.2286 18.4766 19.4738C18.6405 19.7191 18.728 20.0074 18.728 20.3024C18.728 20.6979 18.5708 21.0773 18.2912 21.357C18.0115 21.6367 17.6321 21.7938 17.2366 21.7938ZM16.1777 12.4128C16.3195 12.5486 16.4868 12.655 16.6698 12.726C16.8484 12.8049 17.0414 12.8457 17.2366 12.8457C17.4318 12.8457 17.6248 12.8049 17.8033 12.726C17.9864 12.655 18.1536 12.5486 18.2955 12.4128L21.7108 9.05716C21.9995 8.76841 22.1618 8.37679 22.1618 7.96843C22.1618 7.56008 21.9995 7.16845 21.7108 6.8797C21.4221 6.59095 21.0304 6.42874 20.6221 6.42874C20.2137 6.42874 19.8221 6.59095 19.5333 6.8797L18.728 7.75964V2.40547C18.728 2.00993 18.5708 1.63058 18.2912 1.35089C18.0115 1.07119 17.6321 0.914063 17.2366 0.914062C16.841 0.914063 16.4617 1.07119 16.182 1.35089C15.9023 1.63058 15.7452 2.00993 15.7452 2.40547V7.75964L14.9398 6.8797C14.651 6.59095 14.2594 6.42874 13.8511 6.42874C13.4427 6.42874 13.0511 6.59095 12.7623 6.8797C12.4736 7.16845 12.3114 7.56008 12.3114 7.96843C12.3114 8.37679 12.4736 8.76841 12.7623 9.05716L16.1777 12.4128ZM27.6764 20.3024C27.6764 20.0074 27.589 19.7191 27.4251 19.4738C27.2612 19.2286 27.0283 19.0374 26.7558 18.9245C26.4832 18.8116 26.1834 18.7821 25.8941 18.8396C25.6048 18.8972 25.339 19.0392 25.1304 19.2478C24.9219 19.4564 24.7798 19.7221 24.7223 20.0114C24.6647 20.3007 24.6943 20.6006 24.8071 20.8731C24.92 21.1457 25.1112 21.3786 25.3564 21.5425C25.6017 21.7063 25.8901 21.7938 26.185 21.7938C26.5806 21.7938 26.9599 21.6367 27.2396 21.357C27.5193 21.0773 27.6764 20.6979 27.6764 20.3024ZM29.1679 9.86252H24.6936C24.2981 9.86252 23.9187 10.0197 23.639 10.2993C23.3593 10.579 23.2022 10.9584 23.2022 11.3539C23.2022 11.7495 23.3593 12.1288 23.639 12.4085C23.9187 12.6882 24.2981 12.8453 24.6936 12.8453H29.1679C29.5634 12.8453 29.9427 13.0025 30.2224 13.2822C30.5021 13.5619 30.6593 13.9412 30.6593 14.3368V26.268C30.6593 26.6636 30.5021 27.0429 30.2224 27.3226C29.9427 27.6023 29.5634 27.7594 29.1679 27.7594H5.30529C4.90974 27.7594 4.53039 27.6023 4.2507 27.3226C3.97101 27.0429 3.81388 26.6636 3.81388 26.268V14.3368C3.81388 13.9412 3.97101 13.5619 4.2507 13.2822C4.53039 13.0025 4.90974 12.8453 5.30529 12.8453H9.77952C10.1751 12.8453 10.5544 12.6882 10.8341 12.4085C11.1138 12.1288 11.2709 11.7495 11.2709 11.3539C11.2709 10.9584 11.1138 10.579 10.8341 10.2993C10.5544 10.0197 10.1751 9.86252 9.77952 9.86252H5.30529C4.11865 9.86252 2.98061 10.3339 2.14153 11.173C1.30245 12.0121 0.831055 13.1501 0.831055 14.3368V26.268C0.831055 27.4547 1.30245 28.5927 2.14153 29.4318C2.98061 30.2709 4.11865 30.7423 5.30529 30.7423H29.1679C30.3545 30.7423 31.4925 30.2709 32.3316 29.4318C33.1707 28.5927 33.6421 27.4547 33.6421 26.268V14.3368C33.6421 13.1501 33.1707 12.0121 32.3316 11.173C31.4925 10.3339 30.3545 9.86252 29.1679 9.86252ZM6.7967 20.3024C6.7967 20.5974 6.88417 20.8857 7.04804 21.131C7.21192 21.3762 7.44485 21.5674 7.71737 21.6803C7.98989 21.7932 8.28976 21.8227 8.57907 21.7652C8.86837 21.7076 9.13412 21.5656 9.34269 21.357C9.55127 21.1484 9.69331 20.8827 9.75086 20.5934C9.80841 20.3041 9.77887 20.0042 9.66599 19.7317C9.55311 19.4591 9.36195 19.2262 9.11669 19.0623C8.87143 18.8985 8.58308 18.811 8.28811 18.811C7.89256 18.811 7.51321 18.9681 7.23352 19.2478C6.95383 19.5275 6.7967 19.9068 6.7967 20.3024Z" fill="black"/>
</svg>
