<svg width="21" height="21" viewBox="0 0 21 21" fill="none" xmlns="http://www.w3.org/2000/svg">
<path d="M14.6897 6.43531C15.0794 6.04772 15.0794 5.41607 14.6897 5.02848L13.2562 3.59498L13.2583 3.59703C12.8789 3.21764 12.2267 2.56549 11.3039 1.64469C10.8691 1.22018 10.1657 1.22428 9.73504 1.65494L1.65907 9.72477C1.55574 9.82739 1.47374 9.94944 1.41778 10.0839C1.36182 10.2183 1.33301 10.3625 1.33301 10.5082C1.33301 10.6538 1.36182 10.798 1.41778 10.9324C1.47374 11.0669 1.55574 11.1889 1.65907 11.2916L9.73299 19.3593C9.94116 19.5671 10.2233 19.6839 10.5174 19.6839C10.8116 19.6839 11.0937 19.5671 11.3018 19.3593L14.6877 15.9755C15.0773 15.5879 15.0773 14.9563 14.6877 14.5687C14.5005 14.3825 14.2473 14.278 13.9832 14.278C13.7192 14.278 13.4659 14.3825 13.2788 14.5687L10.7153 17.1363C10.6087 17.2429 10.4426 17.2429 10.3359 17.1363L3.88621 10.6927C3.77957 10.5861 3.77957 10.42 3.88621 10.3133L10.3339 3.86979C10.3421 3.86158 10.3523 3.85543 10.3605 3.84723C10.4672 3.76315 10.6148 3.77135 10.7133 3.86979L13.2808 6.43531C13.6705 6.82496 14.3021 6.82496 14.6897 6.43531ZM8.37948 10.5492C8.37948 11.1268 8.60915 11.6808 9.01798 12.0892C9.4268 12.4977 9.98129 12.7271 10.5595 12.7271C11.1376 12.7271 11.6921 12.4977 12.1009 12.0892C12.5098 11.6808 12.7394 11.1268 12.7394 10.5492C12.7394 9.97156 12.5098 9.41759 12.1009 9.00915C11.6921 8.60071 11.1376 8.37125 10.5595 8.37125C9.98129 8.37125 9.4268 8.60071 9.01798 9.00915C8.60915 9.41759 8.37948 9.97156 8.37948 10.5492ZM19.3758 9.75758L16.8554 7.24947C16.4657 6.86188 15.8341 6.86188 15.4465 7.25152C15.3538 7.34375 15.2803 7.45337 15.2302 7.57408C15.18 7.69479 15.1542 7.82422 15.1542 7.95494C15.1542 8.08566 15.18 8.21509 15.2302 8.3358C15.2803 8.45652 15.3538 8.56613 15.4465 8.65836L17.1486 10.3585C17.2553 10.4651 17.2553 10.6312 17.1486 10.7379L15.4711 12.4133C15.3784 12.5056 15.3049 12.6152 15.2548 12.7359C15.2046 12.8566 15.1788 12.986 15.1788 13.1168C15.1788 13.2475 15.2046 13.3769 15.2548 13.4976C15.3049 13.6183 15.3784 13.728 15.4711 13.8202C15.6582 14.0064 15.9115 14.1109 16.1755 14.1109C16.4395 14.1109 16.6928 14.0064 16.88 13.8202L19.3778 11.3244C19.4808 11.2215 19.5624 11.0993 19.6181 10.9648C19.6737 10.8303 19.7023 10.6861 19.7021 10.5406C19.7019 10.395 19.673 10.2509 19.617 10.1165C19.561 9.98218 19.479 9.86019 19.3758 9.75758Z" fill="#587CF4" fill-opacity="0.8"/>
</svg>
