<svg width="24" height="24" viewBox="0 0 24 24" fill="none" xmlns="http://www.w3.org/2000/svg">
<path d="M10.75 18.25L6.375 13.875M21.375 0.75H2.625C2.12772 0.75 1.65081 0.947544 1.29917 1.29917C0.947544 1.65081 0.75 2.12772 0.75 2.625V21.375C0.75 21.8723 0.947544 22.3492 1.29917 22.7008C1.65081 23.0525 2.12772 23.25 2.625 23.25H21.375C21.8723 23.25 22.3492 23.0525 22.7008 22.7008C23.0525 22.3492 23.25 21.8723 23.25 21.375V2.625C23.25 2.12772 23.0525 1.65081 22.7008 1.29917C22.3492 0.947544 21.8723 0.75 21.375 0.75ZM6.375 10.125H17.625H6.375ZM6.375 13.875H17.625H6.375ZM17.625 10.125L13.25 5.75L17.625 10.125Z" stroke="black" stroke-width="1.33333" stroke-linecap="round" stroke-linejoin="round"/>
</svg>
