<svg width="16" height="9" viewBox="0 0 16 9" fill="none" xmlns="http://www.w3.org/2000/svg">
<path d="M0.984379 3.62109C0.770762 3.62126 0.562883 3.56837 0.392181 3.47042C0.221479 3.37247 0.0972368 3.2348 0.0382435 3.07822C-0.0207498 2.92163 -0.0112858 2.75466 0.0652044 2.60254C0.141695 2.45042 0.281051 2.32144 0.462198 2.23509L3.10555 0.219093C3.19692 0.14946 3.30538 0.0942335 3.42473 0.0565672C3.54408 0.0189006 3.67199 -0.000468016 3.80116 -0.000432968C3.93033 -0.000398159 4.05822 0.0190394 4.17754 0.0567703C4.29685 0.094501 4.40526 0.149785 4.49656 0.219468C4.58786 0.289151 4.66027 0.371866 4.70966 0.462893C4.75905 0.553918 4.78445 0.651472 4.7844 0.749983C4.78436 0.848495 4.75887 0.946035 4.7094 1.03703C4.65992 1.12803 4.58744 1.21071 4.49607 1.28034L3.39369 2.12034L10.8183 2.12034C11.0791 2.12034 11.3292 2.19936 11.5137 2.34001C11.6981 2.48067 11.8017 2.67143 11.8017 2.87034C11.8017 3.06926 11.6981 3.26002 11.5137 3.40067C11.3292 3.54133 11.0791 3.62034 10.8183 3.62034L0.984379 3.62034V3.62109Z" fill="black"/>
<path d="M14.7655 5.09722C14.9792 5.09706 15.187 5.14995 15.3577 5.2479C15.5284 5.34584 15.6527 5.48352 15.7117 5.6401C15.7707 5.79668 15.7612 5.96366 15.6847 6.11578C15.6082 6.26789 15.4689 6.39688 15.2877 6.48322L12.6444 8.49922C12.4598 8.63985 12.2096 8.71882 11.9488 8.71875C11.6879 8.71868 11.4378 8.63958 11.2534 8.49885C11.069 8.35812 10.9654 8.16729 10.9655 7.96833C10.9656 7.76938 11.0693 7.5786 11.2539 7.43797L12.3562 6.59797H4.93163C4.67082 6.59797 4.42069 6.51896 4.23627 6.3783C4.05185 6.23765 3.94824 6.04689 3.94824 5.84797C3.94824 5.64906 4.05185 5.4583 4.23627 5.31764C4.42069 5.17699 4.67082 5.09797 4.93163 5.09797H14.7655V5.09722Z" fill="black"/>
</svg>
