<svg width="18" height="18" viewBox="0 0 18 18" fill="none" xmlns="http://www.w3.org/2000/svg">
<path d="M17.4863 8.86278L9.44141 0.823715C9.38348 0.765676 9.31468 0.71963 9.23894 0.688213C9.16319 0.656796 9.082 0.640625 9 0.640625C8.918 0.640625 8.83681 0.656796 8.76106 0.688213C8.68532 0.71963 8.61652 0.765676 8.55859 0.823715L0.513672 8.86278C0.279297 9.09715 0.146484 9.41551 0.146484 9.74754C0.146484 10.437 0.707031 10.9975 1.39648 10.9975H2.24414V16.7339C2.24414 17.0796 2.52344 17.3589 2.86914 17.3589H7.75V12.9839H9.9375V17.3589H15.1309C15.4766 17.3589 15.7559 17.0796 15.7559 16.7339V10.9975H16.6035C16.9355 10.9975 17.2539 10.8667 17.4883 10.6304C17.9746 10.1421 17.9746 9.35106 17.4863 8.86278Z" fill="#888888"/>
</svg>
