<svg width="21" height="21" viewBox="0 0 21 21" fill="none" xmlns="http://www.w3.org/2000/svg">
<path d="M5.45387 5.10475L5.84325 3.157C5.92257 2.76014 6.137 2.40304 6.45001 2.1465C6.76303 1.88996 7.15529 1.74984 7.56 1.75H13.44C13.8447 1.74984 14.237 1.88996 14.55 2.1465C14.863 2.40304 15.0774 2.76014 15.1568 3.157L15.5461 5.10475C15.6072 5.40994 15.7537 5.69152 15.9686 5.91674C16.1834 6.14195 16.4578 6.30156 16.7597 6.377C17.4711 6.55496 18.1026 6.96559 18.5538 7.54364C19.005 8.12168 19.2501 8.83395 19.25 9.56725V15.75C19.25 16.6783 18.8813 17.5685 18.2249 18.2249C17.5685 18.8813 16.6783 19.25 15.75 19.25H5.25C4.32174 19.25 3.4315 18.8813 2.77513 18.2249C2.11875 17.5685 1.75 16.6783 1.75 15.75V9.56725C1.74993 8.83395 1.99498 8.12168 2.44619 7.54364C2.8974 6.96559 3.52888 6.55496 4.24025 6.377C4.54222 6.30156 4.81658 6.14195 5.03142 5.91674C5.24626 5.69152 5.39275 5.40994 5.45387 5.10475V5.10475Z" stroke="#587CF4" stroke-opacity="0.8" stroke-width="1.75" stroke-linecap="round" stroke-linejoin="round"/>
<path d="M10.5 15.75C12.433 15.75 14 14.183 14 12.25C14 10.317 12.433 8.75 10.5 8.75C8.567 8.75 7 10.317 7 12.25C7 14.183 8.567 15.75 10.5 15.75Z" stroke="#587CF4" stroke-opacity="0.8" stroke-width="1.75" stroke-linecap="round" stroke-linejoin="round"/>
<path d="M9.625 5.25H11.375" stroke="#587CF4" stroke-opacity="0.8" stroke-width="1.75" stroke-linecap="round" stroke-linejoin="round"/>
</svg>
