<svg width="14" height="17" viewBox="0 0 14 17" fill="none" xmlns="http://www.w3.org/2000/svg">
<path d="M7.00033 0.5C5.50849 0.5 4.07775 1.09263 3.02286 2.14752C1.96796 3.20242 1.37533 4.63316 1.37533 6.125V9.12625L0.170332 12.1437C0.132591 12.2385 0.118617 12.3411 0.129631 12.4425C0.140644 12.5439 0.17631 12.6411 0.233516 12.7255C0.290722 12.81 0.367729 12.8791 0.457815 12.927C0.547901 12.9748 0.648328 12.9999 0.750332 13H13.2503C13.3523 12.9999 13.4528 12.9748 13.5428 12.927C13.6329 12.8791 13.7099 12.81 13.7671 12.7255C13.8244 12.6411 13.86 12.5439 13.871 12.4425C13.882 12.3411 13.8681 12.2385 13.8303 12.1437L12.6253 9.125V6.125C12.6253 4.63316 12.0327 3.20242 10.9778 2.14752C9.92291 1.09263 8.49217 0.5 7.00033 0.5ZM7.00033 16.125C6.44598 16.1251 5.90731 15.941 5.46902 15.6016C5.03072 15.2622 4.71767 14.7867 4.57908 14.25H9.42158C9.283 14.7867 8.96994 15.2622 8.53165 15.6016C8.09335 15.941 7.55468 16.1251 7.00033 16.125Z" fill="#888888"/>
</svg>
