<svg width="30" height="30" viewBox="0 0 30 30" fill="none" xmlns="http://www.w3.org/2000/svg">
<path d="M28.125 18.75C28.1269 17.8113 27.8938 16.8869 27.447 16.0613C27.0002 15.2357 26.3538 14.5351 25.5668 14.0232C24.7799 13.5114 23.8773 13.2047 22.9415 13.131C22.0056 13.0573 21.0662 13.219 20.2088 13.6014C19.3514 13.9838 18.6034 14.5747 18.0329 15.3202C17.4624 16.0657 17.0875 16.9422 16.9425 17.8697C16.7975 18.7972 16.8869 19.7462 17.2026 20.6303C17.5183 21.5144 18.0503 22.3054 18.75 22.9313V30L22.5 28.2244L26.25 30V22.9313C26.8394 22.4057 27.3111 21.7615 27.6342 21.041C27.9573 20.3204 28.1246 19.5397 28.125 18.75ZM24.375 27.0375L22.5 26.1497L20.625 27.0375V24.0469C21.8367 24.4845 23.1633 24.4845 24.375 24.0469V27.0375ZM22.5 22.5C21.7583 22.5 21.0333 22.2801 20.4166 21.868C19.7999 21.456 19.3193 20.8703 19.0354 20.1851C18.7516 19.4999 18.6774 18.7459 18.822 18.0184C18.9667 17.291 19.3239 16.6228 19.8483 16.0984C20.3728 15.5739 21.041 15.2168 21.7684 15.0721C22.4958 14.9274 23.2498 15.0016 23.9351 15.2855C24.6203 15.5693 25.2059 16.0499 25.618 16.6666C26.0301 17.2833 26.25 18.0083 26.25 18.75C26.2487 19.7442 25.8533 20.6973 25.1503 21.4003C24.4473 22.1033 23.4942 22.4988 22.5 22.5Z" fill="#4086F4"/>
<path d="M23.4375 4.6875H20.625V3.75C20.6235 3.25318 20.4255 2.77712 20.0742 2.42581C19.7229 2.0745 19.2468 1.87648 18.75 1.875H11.25C10.7532 1.87648 10.2771 2.0745 9.92581 2.42581C9.5745 2.77712 9.37648 3.25318 9.375 3.75V4.6875H6.5625C6.06568 4.68898 5.58962 4.887 5.23831 5.23831C4.887 5.58962 4.68898 6.06568 4.6875 6.5625V26.25C4.68898 26.7468 4.887 27.2229 5.23831 27.5742C5.58962 27.9255 6.06568 28.1235 6.5625 28.125H15V26.25H6.5625V6.5625H9.375V9.375H20.625V6.5625H23.4375V11.25H25.3125V6.5625C25.311 6.06568 25.113 5.58962 24.7617 5.23831C24.4104 4.887 23.9343 4.68898 23.4375 4.6875ZM18.75 7.5H11.25V3.75H18.75V7.5Z" fill="#4086F4"/>
</svg>
