<svg width="21" height="19" viewBox="0 0 21 19" fill="none" xmlns="http://www.w3.org/2000/svg">
<path fill-rule="evenodd" clip-rule="evenodd" d="M5.78288 1.76137C7.09469 0.630177 8.76782 0.0054318 10.5 0C14.0306 0 16.9614 2.625 17.2804 6.00994C19.3699 6.30525 21 8.05481 21 10.2021C21 12.5593 19.0339 14.4375 16.6517 14.4375H13.125C12.951 14.4375 12.784 14.3684 12.661 14.2453C12.5379 14.1222 12.4688 13.9553 12.4688 13.7812C12.4688 13.6072 12.5379 13.4403 12.661 13.3172C12.784 13.1941 12.951 13.125 13.125 13.125H16.653C18.3474 13.125 19.6875 11.7968 19.6875 10.2021C19.6875 8.60606 18.3488 7.27781 16.6517 7.27781H15.9954V6.62156C15.9968 3.70781 13.5555 1.3125 10.5 1.3125C9.08234 1.31816 7.71335 1.83019 6.63994 2.75625C5.64638 3.612 5.12663 4.64363 5.12663 5.45344V6.04144L4.54256 6.10575C2.709 6.30656 1.3125 7.812 1.3125 9.60487C1.3125 11.5303 2.92687 13.125 4.96256 13.125H7.875C8.04905 13.125 8.21597 13.1941 8.33904 13.3172C8.46211 13.4403 8.53125 13.6072 8.53125 13.7812C8.53125 13.9553 8.46211 14.1222 8.33904 14.2453C8.21597 14.3684 8.04905 14.4375 7.875 14.4375H4.96256C2.24175 14.4375 0 12.2929 0 9.60487C0 7.29094 1.66162 5.37469 3.86137 4.88906C4.04906 3.75637 4.7775 2.62762 5.78288 1.76137Z" fill="#949494"/>
<path fill-rule="evenodd" clip-rule="evenodd" d="M10.0352 4.44182C10.0962 4.38071 10.1686 4.33222 10.2483 4.29914C10.3281 4.26605 10.4135 4.24902 10.4999 4.24902C10.5862 4.24902 10.6716 4.26605 10.7514 4.29914C10.8311 4.33222 10.9035 4.38071 10.9645 4.44182L14.902 8.37932C15.0252 8.50255 15.0944 8.66968 15.0944 8.84395C15.0944 9.01821 15.0252 9.18535 14.902 9.30857C14.7788 9.4318 14.6116 9.50102 14.4374 9.50102C14.2631 9.50102 14.096 9.4318 13.9727 9.30857L11.1561 6.49063V18.0314C11.1561 18.2055 11.087 18.3724 10.9639 18.4955C10.8408 18.6186 10.6739 18.6877 10.4999 18.6877C10.3258 18.6877 10.1589 18.6186 10.0358 18.4955C9.91274 18.3724 9.8436 18.2055 9.8436 18.0314V6.49063L7.02698 9.30857C6.90375 9.4318 6.73662 9.50102 6.56235 9.50102C6.38808 9.50102 6.22095 9.4318 6.09773 9.30857C5.9745 9.18535 5.90527 9.01821 5.90527 8.84395C5.90527 8.66968 5.9745 8.50255 6.09773 8.37932L10.0352 4.44182Z" fill="#949494"/>
</svg>
