<svg width="18" height="15" viewBox="0 0 18 15" fill="none" xmlns="http://www.w3.org/2000/svg">
<path d="M9 0C13.4854 0 17.2172 3.23333 18 7.5C17.218 11.7667 13.4854 15 9 15C4.51456 15 0.78279 11.7667 0 7.5C0.781958 3.23333 4.51456 0 9 0ZM9 13.3333C10.6966 13.333 12.3428 12.7557 13.6692 11.696C14.9956 10.6363 15.9236 9.15689 16.3013 7.5C15.9222 5.84442 14.9936 4.36667 13.6673 3.30835C12.341 2.25004 10.6956 1.67377 9 1.67377C7.3044 1.67377 5.65895 2.25004 4.33269 3.30835C3.00643 4.36667 2.07782 5.84442 1.69868 7.5C2.07643 9.15689 3.00444 10.6363 4.33083 11.696C5.65723 12.7557 7.30343 13.333 9 13.3333V13.3333ZM9 11.25C8.00718 11.25 7.05503 10.8549 6.35301 10.1516C5.65098 9.44839 5.25659 8.49456 5.25659 7.5C5.25659 6.50544 5.65098 5.55161 6.35301 4.84835C7.05503 4.14509 8.00718 3.75 9 3.75C9.99282 3.75 10.945 4.14509 11.647 4.84835C12.349 5.55161 12.7434 6.50544 12.7434 7.5C12.7434 8.49456 12.349 9.44839 11.647 10.1516C10.945 10.8549 9.99282 11.25 9 11.25ZM9 9.58333C9.55156 9.58333 10.0805 9.36384 10.4706 8.97314C10.8606 8.58244 11.0797 8.05253 11.0797 7.5C11.0797 6.94747 10.8606 6.41756 10.4706 6.02686C10.0805 5.63616 9.55156 5.41667 9 5.41667C8.44844 5.41667 7.91946 5.63616 7.52945 6.02686C7.13943 6.41756 6.92033 6.94747 6.92033 7.5C6.92033 8.05253 7.13943 8.58244 7.52945 8.97314C7.91946 9.36384 8.44844 9.58333 9 9.58333Z" fill="#808080"/>
</svg>
