<svg width="18" height="16" viewBox="0 0 18 16" fill="none" xmlns="http://www.w3.org/2000/svg">
<path d="M13.4115 13.4727C12.0924 14.3094 10.562 14.7525 8.99999 14.75C4.95599 14.75 1.59149 11.84 0.885742 7.99999C1.20826 6.25303 2.08696 4.65716 3.39074 3.45049L1.04399 1.10599L2.10524 0.0447388L16.9545 14.8947L15.8932 15.9552L13.4107 13.4727H13.4115ZM4.45124 4.51249C3.432 5.43918 2.72198 6.65658 2.41724 7.99999C2.65146 9.02483 3.12169 9.98085 3.79049 10.7919C4.4593 11.603 5.30821 12.2468 6.26966 12.672C7.2311 13.0972 8.27853 13.292 9.32856 13.2411C10.3786 13.1901 11.4022 12.8948 12.318 12.3785L10.797 10.8575C10.1495 11.2654 9.38264 11.4411 8.62217 11.3558C7.8617 11.2706 7.15277 10.9294 6.61167 10.3883C6.07057 9.84721 5.72941 9.13828 5.64416 8.37781C5.55891 7.61734 5.73463 6.85047 6.14249 6.20299L4.45124 4.51249ZM9.68549 9.74599L7.25399 7.31449C7.12054 7.65419 7.08913 8.02545 7.16362 8.38275C7.23811 8.74004 7.41526 9.06782 7.67333 9.3259C7.93141 9.58398 8.25919 9.76112 8.61648 9.83561C8.97378 9.9101 9.34504 9.87869 9.68474 9.74524L9.68549 9.74599ZM15.6052 11.444L14.532 10.3715C15.0333 9.65697 15.3903 8.85138 15.5827 7.99999C15.3789 7.10728 14.9957 6.26535 14.4564 5.52536C13.917 4.78537 13.2328 4.16278 12.4454 3.69544C11.658 3.2281 10.7837 2.92576 9.87579 2.80681C8.96787 2.68786 8.04525 2.75477 7.16399 3.00349L5.98049 1.81999C6.91574 1.45249 7.93499 1.24999 8.99999 1.24999C13.044 1.24999 16.4085 4.15999 17.1142 7.99999C16.8844 9.24926 16.3679 10.4282 15.6052 11.444ZM8.79224 4.63099C9.26962 4.60149 9.74783 4.67379 10.1951 4.8431C10.6425 5.01241 11.0487 5.27487 11.3869 5.61308C11.7251 5.95128 11.9876 6.35751 12.1569 6.80483C12.3262 7.25215 12.3985 7.73036 12.369 8.20774L8.79149 4.63099H8.79224Z" fill="#808080"/>
</svg>
