<svg width="28" height="20" viewBox="0 0 28 20" fill="none" xmlns="http://www.w3.org/2000/svg">
<path d="M1.5 3.75C1.5 3.08696 1.76339 2.45107 2.23223 1.98223C2.70107 1.51339 3.33696 1.25 4 1.25H24C24.663 1.25 25.2989 1.51339 25.7678 1.98223C26.2366 2.45107 26.5 3.08696 26.5 3.75V16.25C26.5 16.913 26.2366 17.5489 25.7678 18.0178C25.2989 18.4866 24.663 18.75 24 18.75H4C3.33696 18.75 2.70107 18.4866 2.23223 18.0178C1.76339 17.5489 1.5 16.913 1.5 16.25V3.75Z" stroke="black" stroke-width="2" stroke-linecap="round" stroke-linejoin="round"/>
<path d="M14 13.75C16.0711 13.75 17.75 12.0711 17.75 10C17.75 7.92893 16.0711 6.25 14 6.25C11.9289 6.25 10.25 7.92893 10.25 10C10.25 12.0711 11.9289 13.75 14 13.75Z" stroke="black" stroke-width="2" stroke-linecap="round" stroke-linejoin="round"/>
<path d="M21.5 18.75C21.5 17.4239 22.0268 16.1521 22.9645 15.2145C23.9021 14.2768 25.1739 13.75 26.5 13.75M1.5 6.25C2.82608 6.25 4.09785 5.72322 5.03553 4.78553C5.97322 3.84785 6.5 2.57608 6.5 1.25L1.5 6.25Z" stroke="black" stroke-width="2" stroke-linecap="round" stroke-linejoin="round"/>
</svg>
